# xmcd
#
# Track frame offsets: 
#        150
#        16321
#        41970
#        66757
#        91017
#        112615
#        124351
#        141432
#        170257
#        175908
#        194122
#        205683
#        235898
#        257179
#        282327
#        296772
#        314807
#        332039
#        350463
#
# Disc length: 4790 seconds
#
# Revision: 2
# Processed by: cddbd v1.5.2PL0 Copyright (c) Steve Scherf et al.
# Submitted via: ExactAudioCopyFreeDBPlugin 1.0
#
DISCID=2b12b413
DTITLE=Various Artist - Stunt Records Compilation Vol. 19 - 2011
DYEAR=2011
DGENRE=Jazz
TTITLE0=Bobo Moreno - Bo Stief - Ole Kock Hansen - People Get Ready
TTITLE1=Eliel Lazo - Habana
TTITLE2=Veronica Mortensen - Chuk E's In Love
TTITLE3=Thomas Clausen Sextet - Elegy
TTITLE4=Joyce - Slow Music
TTITLE5=Magnus Hjorth - Play The Game
TTITLE6=Hanne Boel - Moon On My Shoulder
TTITLE7=Mikkel Nordsø - Rock the Buzz
TTITLE8=Peter Rosendal - Segundo
TTITLE9=Nicolai Much-Hansen Feat. Kira - My Man
TTITLE10=Blue Lotus - Not Only For Pleasure
TTITLE11=Ed Thigpen Trio - Down With It
TTITLE12=Povl Dissing - That Lucky Old Sun
TTITLE13=Jesper Thilo - The Masquerade Is Over
TTITLE14=Pasborg's Odessa 5 X-tra Large - Sing Sing Sing
TTITLE15=Offpiste Gurus - I Wanna Go Back
TTITLE16=Lars Møller - The 2nd Never Lies
TTITLE17=Mads La Cour - Ublabu
TTITLE18=Marilyn Mazur - On The Way
EXTD=YEAR: 2011
EXTT0=
EXTT1=
EXTT2=
EXTT3=
EXTT4=
EXTT5=
EXTT6=
EXTT7=
EXTT8=
EXTT9=
EXTT10=
EXTT11=
EXTT12=
EXTT13=
EXTT14=
EXTT15=
EXTT16=
EXTT17=
EXTT18=
PLAYORDER=
